{"title":"Bengali Movie - Mahanagar@Kolkata (2010) - Adult","uid":6497987,"size":333544307,"categoryP":"video","categoryS":"movies","magnet":"?xt=urn:btih:871c1cc85afc7d1162132b693cbb40aac238eaa6&amp;dn=Bengali+Movie+-+Mahanagar%40Kolkata+%282010%29+-+Adult&amp;tr=udp%3A%2F%2Ftracker.openbittorrent.com%3A80&amp;tr=udp%3A%2F%2Fopen.demonii.com%3A1337&amp;tr=udp%3A%2F%2Ftracker.coppersurfer.tk%3A6969&amp;tr=udp%3A%2F%2Fexodus.desync.com%3A6969","seeders":1,"leechers":2,"uploader":"Robin5555","files":4,"time":1309147009,"description":"***************************** TPB IS BENEDICTION TO ME ****************************\n*                                                                                 *\n*\t\t\t\t\t\t\t\t\t\t  *\n*\t        *                       *                       *\t          *\n*              ***                     ***                     ***                *\n*\t      *****                   *****                   *****\t\t  *\n*            *******                 *******                 *******\t\t  *\n*           *********\t\t    *********               *********             *\n*          ***********\t           ***********             *********** \t\t  *\n*         *************           *************           *************           *\n*        ***************         ***************         ***************\t  *\n*       *****************       *****************       *****************         *\n*      *******************     *******************     *******************        *\n*     *** TPB IS D BEST ***   *** TPB IS D BEST ***   *** TPB IS D BEST *** \t  *\n*      *******************     *******************     *******************\t  *\n*       *****************       *****************       *****************         *\n*        ***************         ***************         ***************          *\n*         *************           *************           *************\t \t  *\n*          ***********             ***********             ***********            *\n*           *********               *********               *********             *\n*            *******                 *******                 *******              *\n*             *****                   *****\t\t      *****               *\n*\t       ***                     ***                     ***                *\n*\t        *                       *                       *                 *\n*\t\t\t\t\t\t\t\t\t\t  *\n*\t\t\t\t\t\t\t\t\t\t  *\n***************************** TPB IS BENEDICTION TO ME ****************************\n\n\nScreen Link :---\n\n &lt;a href=&quot;\nhttp://www.shotpix.com/images/41338607820049096498.jpg&quot; rel=&quot;nofollow&quot; target=&quot;_NEW&quot;&gt;\nhttp://www.shotpix.com/images/41338607820049096498.jpg&lt;/a&gt;\n &lt;a href=&quot;\nhttp://www.shotpix.com/images/16540388926283262868.jpg&quot; rel=&quot;nofollow&quot; target=&quot;_NEW&quot;&gt;\nhttp://www.shotpix.com/images/16540388926283262868.jpg&lt;/a&gt;\n\n\n\nGeneral Info :---  (Disc 1) :---\n\n\nFormat                           : Matroska\nFile size                        : 151 MiB\nDuration                         : 44mn 33s\nOverall bit rate                 : 475 Kbps\n\nVideo\nID                               : 1\nFormat                           : AVC\nFormat/Info                      : Advanced Video Codec\nFormat profile                   : &lt;a class=&quot;__cf_email__&quot; href=&quot;/cdn-cgi/l/email-protection&quot; data-cfemail=&quot;91d9f8f6f9d1dda5bfa1&quot;&gt;[email&amp;#160;protected]&lt;/a&gt;&lt;script cf-hash='f9e31' type=&quot;text/javascript&quot;&gt;\n/* &lt;![CDATA[ */!function(){try{var t=&quot;currentScript&quot;in document?document.currentScript:function(){for(var t=document.getElementsByTagName(&quot;script&quot;),e=t.length;e--;)if(t[e].getAttribute(&quot;cf-hash&quot;))return t[e]}();if(t&amp;&amp;t.previousSibling){var e,r,n,i,c=t.previousSibling,a=c.getAttribute(&quot;data-cfemail&quot;);if(a){for(e=&quot;&quot;,r=parseInt(a.substr(0,2),16),n=2;a.length-n;n+=2)i=parseInt(a.substr(n,2),16)^r,e+=String.fromCharCode(i);e=document.createTextNode(e),c.parentNode.replaceChild(e,c)}}}catch(u){}}();/* ]]&gt; */&lt;/script&gt;\nFormat settings, CABAC           : Yes\nFormat settings, ReFrames        : 3 frames\nCodec ID                         : V_MPEG4/ISO/AVC\nDuration                         : 44mn 33s\nBit rate mode                    : Variable\nBit rate                         : 346 Kbps\nMaximum bit rate                 : 25.0 Mbps\nWidth                            : 352 pixels\nHeight                           : 288 pixels\nDisplay aspect ratio             : 1.222\nFrame rate                       : 23.976 fps\nStandard                         : PAL\nColor space                      : YUV\nChroma subsampling               : 4:2:0\nBit depth                        : 8 bits\nScan type                        : Progressive\nBits/(Pixel*Frame)               : 0.142\nStream size                      : 108 MiB (71%)\n\nAudio\nID                               : 2\nFormat                           : MPEG Audio\nFormat version                   : Version 1\nFormat profile                   : Layer 2\nCodec ID                         : A_MPEG/L2\nCodec ID/Hint                    : MP2\nDuration                         : 44mn 33s\nBit rate mode                    : Constant\nBit rate                         : 128 Kbps\nChannel(s)                       : 2 channels\nSampling rate                    : 44.1 KHz\nCompression mode                 : Lossy\nStream size                      : 40.8 MiB (27%)\n\n\nGeneral Info :---  (Disc 2) :---\n\n\nFormat                           : Matroska\nFile size                        : 167 MiB\nDuration                         : 49mn 20s\nOverall bit rate                 : 472 Kbps\n\nVideo\nID                               : 1\nFormat                           : AVC\nFormat/Info                      : Advanced Video Codec\nFormat profile                   : &lt;a class=&quot;__cf_email__&quot; href=&quot;/cdn-cgi/l/email-protection&quot; data-cfemail=&quot;0b43626c634b473f253b&quot;&gt;[email&amp;#160;protected]&lt;/a&gt;&lt;script cf-hash='f9e31' type=&quot;text/javascript&quot;&gt;\n/* &lt;![CDATA[ */!function(){try{var t=&quot;currentScript&quot;in document?document.currentScript:function(){for(var t=document.getElementsByTagName(&quot;script&quot;),e=t.length;e--;)if(t[e].getAttribute(&quot;cf-hash&quot;))return t[e]}();if(t&amp;&amp;t.previousSibling){var e,r,n,i,c=t.previousSibling,a=c.getAttribute(&quot;data-cfemail&quot;);if(a){for(e=&quot;&quot;,r=parseInt(a.substr(0,2),16),n=2;a.length-n;n+=2)i=parseInt(a.substr(n,2),16)^r,e+=String.fromCharCode(i);e=document.createTextNode(e),c.parentNode.replaceChild(e,c)}}}catch(u){}}();/* ]]&gt; */&lt;/script&gt;\nFormat settings, CABAC           : Yes\nFormat settings, ReFrames        : 3 frames\nCodec ID                         : V_MPEG4/ISO/AVC\nDuration                         : 49mn 20s\nBit rate mode                    : Variable\nBit rate                         : 343 Kbps\nMaximum bit rate                 : 25.0 Mbps\nWidth                            : 352 pixels\nHeight                           : 288 pixels\nDisplay aspect ratio             : 1.222\nFrame rate                       : 23.976 fps\nStandard                         : PAL\nColor space                      : YUV\nChroma subsampling               : 4:2:0\nBit depth                        : 8 bits\nScan type                        : Progressive\nBits/(Pixel*Frame)               : 0.141\nStream size                      : 118 MiB (71%)\n\nAudio\nID                               : 2\nFormat                           : MPEG Audio\nFormat version                   : Version 1\nFormat profile                   : Layer 2\nCodec ID                         : A_MPEG/L2\nCodec ID/Hint                    : MP2\nDuration                         : 49mn 20s\nBit rate mode                    : Constant\nBit rate                         : 128 Kbps\nChannel(s)                       : 2 channels\nSampling rate                    : 44.1 KHz\nCompression mode                 : Lossy\nStream size                      : 45.2 MiB (27%)\n\n\n\n***************************** TPB IS BENEDICTION TO ME ****************************\n*                                                                                 *\n*\t\t\t\t\t\t\t\t\t\t  *\n*\t        *                       *                       *\t          *\n*              ***                     ***                     ***                *\n*\t      *****                   *****                   *****\t\t  *\n*            *******                 *******                 *******\t\t  *\n*           *********\t\t    *********               *********             *\n*          ***********\t           ***********             *********** \t\t  *\n*         *************           *************           *************           *\n*        ***************         ***************         ***************\t  *\n*       *****************       *****************       *****************         *\n*      *******************     *******************     *******************        *\n*     *** TPB IS D BEST ***   *** TPB IS D BEST ***   *** TPB IS D BEST *** \t  *\n*      *******************     *******************     *******************\t  *\n*       *****************       *****************       *****************         *\n*        ***************         ***************         ***************          *\n*         *************           *************           *************\t \t  *\n*          ***********             ***********             ***********            *\n*           *********               *********               *********             *\n*            *******                 *******                 *******              *\n*             *****                   *****\t\t      *****               *\n*\t       ***                     ***                     ***                *\n*\t        *                       *                       *                 *\n*\t\t\t\t\t\t\t\t\t\t  *\n*\t\t\t\t\t\t\t\t\t\t  *\n***************************** TPB IS BENEDICTION TO ME ****************************\n\n\n\n","torrent":{"xt":"urn:btih:871c1cc85afc7d1162132b693cbb40aac238eaa6","amp;dn":"Bengali+Movie+-+Mahanagar%40Kolkata+%282010%29+-+Adult","amp;tr":["udp%3A%2F%2Ftracker.openbittorrent.com%3A80","udp%3A%2F%2Fopen.demonii.com%3A1337","udp%3A%2F%2Ftracker.coppersurfer.tk%3A6969","udp%3A%2F%2Fexodus.desync.com%3A6969"],"infoHash":"871c1cc85afc7d1162132b693cbb40aac238eaa6","infoHashBuffer":{"type":"Buffer","data":[135,28,28,200,90,252,125,17,98,19,43,105,60,187,64,170,194,56,234,166]},"announce":[],"urlList":[]}}